<?xml version="1.0" standalone="no"?>
<!DOCTYPE svg PUBLIC "-//W3C//DTD SVG 20010904//EN"
 "http://www.w3.org/TR/2001/REC-SVG-20010904/DTD/svg10.dtd">
<svg version="1.0" xmlns="http://www.w3.org/2000/svg"
 width="260.000000pt" height="260.000000pt" viewBox="0 0 260.000000 260.000000"
 preserveAspectRatio="xMidYMid meet">
<metadata>
Created by potrace 1.14, written by Peter Selinger 2001-2017
</metadata>
<g transform="translate(0.000000,260.000000) scale(0.100000,-0.100000)"
fill="#000000" stroke="none">
<path d="M1121 2539 c-51 -10 -101 -24 -110 -32 -9 -7 -61 -28 -116 -46 -306
-100 -559 -298 -675 -528 -35 -70 -49 -84 -25 -25 53 126 177 273 320 378 77
57 294 174 321 174 8 0 14 5 14 10 0 7 -6 7 -19 1 -10 -6 -21 -7 -25 -4 -3 3
-6 1 -6 -5 0 -7 -3 -11 -7 -10 -26 5 -169 -71 -273 -146 -208 -148 -377 -373
-454 -606 -48 -146 -60 -232 -61 -425 0 -175 1 -184 37 -325 57 -224 151 -385
325 -557 148 -146 362 -269 558 -321 95 -26 175 -35 175 -22 0 6 -7 11 -15 11
-8 1 -24 3 -35 4 -11 1 -29 3 -40 4 -11 0 -20 5 -20 9 0 4 24 5 53 2 30 -3 67
-5 83 -4 72 4 88 6 77 11 -7 2 -13 9 -13 15 0 6 7 8 15 5 8 -4 17 -2 20 3 4 6
-6 10 -20 10 -42 0 -20 17 32 24 58 8 90 24 47 23 -103 -1 -343 57 -391 95 -7
6 -40 23 -73 39 -33 16 -80 41 -103 57 -23 15 -53 33 -67 40 -51 26 -208 156
-282 235 -111 117 -153 191 -188 330 -15 62 -31 138 -34 168 l-6 54 18 -50
c10 -27 24 -59 31 -70 12 -19 12 -19 7 5 -29 120 -25 358 8 475 53 191 150
359 290 498 132 131 310 236 473 277 42 11 96 30 120 41 23 11 51 19 60 16 14
-3 13 -6 -9 -15 -33 -13 -37 -23 -8 -15 11 3 27 15 35 26 13 19 24 21 142 21
75 0 151 -6 183 -14 30 -8 59 -13 63 -12 5 1 6 -2 2 -8 -3 -6 -11 -8 -16 -4
-16 10 -123 14 -113 5 5 -5 29 -11 54 -14 61 -8 160 -38 247 -74 45 -19 76
-27 85 -22 10 7 10 9 -2 10 -8 1 -21 1 -27 0 -7 -1 -13 6 -13 16 0 15 2 16 10
3 5 -8 10 -12 10 -7 0 8 80 -30 80 -39 0 -3 -5 -2 -12 2 -7 4 -8 3 -4 -5 4 -6
12 -9 17 -6 11 7 118 -56 119 -70 0 -5 -5 -4 -12 3 -7 7 -16 12 -21 12 -5 0 2
-9 17 -21 14 -11 24 -24 21 -29 -3 -4 3 -14 13 -21 15 -13 16 -12 3 4 -7 9
-10 17 -6 17 4 0 2 7 -5 15 -7 8 -8 15 -2 15 5 0 15 -7 22 -15 7 -8 9 -15 4
-15 -4 0 -3 -5 3 -11 6 -6 9 -17 7 -24 -3 -7 -1 -16 5 -20 6 -3 11 -1 11 5 0
6 5 8 10 5 6 -4 8 -11 5 -16 -7 -10 75 -100 86 -93 4 2 6 -4 5 -14 0 -9 5 -16
12 -14 8 1 11 -2 8 -7 -3 -5 10 -33 30 -63 75 -110 159 -319 180 -447 10 -65
14 -285 5 -338 -4 -29 -5 -53 -1 -53 14 0 28 155 25 275 -2 115 -18 212 -53
319 -25 78 -116 251 -130 248 -8 -1 -11 2 -8 6 7 11 -45 91 -75 118 -21 17
-22 18 -16 1 4 -11 3 -16 -4 -12 -5 4 -7 16 -3 27 5 17 3 20 -10 15 -11 -5
-15 -3 -10 5 4 7 3 8 -4 4 -8 -5 -10 -2 -6 8 3 9 1 16 -6 16 -6 0 -8 -5 -4
-12 4 -7 3 -8 -5 -4 -6 4 -9 11 -6 16 6 9 -19 32 -29 25 -3 -3 -2 1 4 7 14 17
114 -83 180 -179 203 -295 258 -668 148 -1003 -32 -100 -100 -238 -158 -326
-96 -143 -223 -255 -448 -398 -24 -15 -45 -33 -49 -41 -3 -8 -11 -15 -18 -15
-8 0 -17 -4 -20 -10 -4 -6 3 -6 21 0 15 6 28 9 31 7 2 -2 -17 -12 -42 -21 -25
-10 -45 -22 -45 -27 0 -13 13 -11 72 12 260 101 492 309 638 573 32 59 71 159
96 251 l13 50 -5 -55 c-5 -59 -56 -198 -110 -298 -18 -35 -29 -60 -24 -57 17
11 100 180 129 264 31 91 59 214 67 299 4 39 11 72 15 72 5 0 10 -7 10 -15 1
-8 3 -19 4 -25 1 -5 4 -25 5 -42 2 -32 2 -32 10 -8 l8 25 1 -27 c1 -16 -4 -28
-11 -28 -10 0 -10 -2 -1 -8 9 -5 8 -24 -2 -77 -7 -39 -11 -72 -9 -74 1 -2 5 7
8 20 34 147 41 225 24 247 -11 13 -11 14 0 8 12 -7 13 11 3 217 -1 9 -6 17
-12 17 -5 0 -7 -6 -3 -12 4 -7 3 -9 -1 -5 -15 13 -14 36 0 31 11 -5 11 6 -1
58 -9 35 -17 72 -20 82 -9 45 -36 116 -44 116 -5 0 -7 7 -4 15 6 16 -64 161
-122 252 -31 50 -133 181 -170 220 -40 42 -139 121 -146 117 -5 -3 -7 0 -6 7
2 6 -3 14 -11 17 -9 3 -11 0 -6 -9 5 -8 4 -11 -1 -6 -5 5 -9 14 -9 19 0 6 -6
13 -14 16 -9 3 -11 0 -6 -9 5 -8 4 -11 -1 -6 -5 5 -9 14 -9 19 0 6 -6 13 -14
16 -9 3 -11 0 -6 -8 5 -9 4 -11 -4 -6 -6 4 -9 11 -6 16 7 12 -21 32 -49 34
-13 0 -22 4 -19 9 7 11 -105 60 -118 51 -7 -4 -9 -3 -5 4 5 9 -41 31 -80 38
-6 1 -22 5 -35 9 -19 5 -21 4 -9 -4 9 -7 10 -11 3 -11 -7 0 -17 8 -22 18 -6 9
-11 11 -11 5 0 -7 -8 -13 -17 -13 -14 0 -15 2 -5 9 10 6 9 10 -7 14 -12 3 -19
1 -15 -4 3 -5 -4 -9 -16 -9 -12 0 -19 3 -17 8 3 4 -13 8 -36 9 -22 1 -44 8
-48 15 -7 10 -9 10 -9 0 0 -9 -5 -10 -17 -4 -10 5 -24 7 -31 5 -7 -3 -19 1
-27 7 -11 9 -15 10 -15 1 0 -7 -5 -9 -12 -4 -24 14 -143 11 -237 -8z m719
-187 c141 -65 318 -204 412 -322 88 -111 195 -325 223 -445 22 -91 12 -93 -14
-3 -102 346 -313 604 -621 757 -105 52 -105 61 0 13z m115 18 c3 -6 -1 -7 -9
-4 -18 7 -21 14 -7 14 6 0 13 -4 16 -10z m-325 -30 c0 -5 -5 -10 -11 -10 -5 0
-7 5 -4 10 3 6 8 10 11 10 2 0 4 -4 4 -10z m80 -48 c0 -1 -9 2 -20 8 -11 6
-20 15 -20 20 0 6 9 2 20 -7 11 -10 20 -19 20 -21z m39 6 c13 -4 13 -5 0 -10
-9 -4 -21 2 -29 15 -11 19 -11 20 1 11 8 -6 21 -13 28 -16z m-1039 -12 c0 -2
-7 -7 -16 -10 -8 -3 -12 -2 -9 4 6 10 25 14 25 6z m-40 -20 c0 -3 -24 -21 -54
-41 -84 -55 -199 -178 -273 -289 -81 -122 -97 -141 -53 -61 74 134 201 275
325 360 53 36 55 37 55 31z m1301 -63 c13 -16 12 -17 -3 -4 -10 7 -18 15 -18
17 0 8 8 3 21 -13z m106 -83 c18 -16 31 -30 27 -30 -3 0 -22 14 -41 30 -18 17
-31 30 -27 30 3 0 22 -13 41 -30z m-27 -10 c0 -5 -2 -10 -4 -10 -3 0 -8 5 -11
10 -3 6 -1 10 4 10 6 0 11 -4 11 -10z m201 -177 c13 -16 12 -17 -3 -4 -10 7
-18 15 -18 17 0 8 8 3 21 -13z m97 -158 c-3 -3 -9 2 -12 12 -6 14 -5 15 5 6 7
-7 10 -15 7 -18z m-2107 -22 c-12 -20 -14 -14 -5 12 4 9 9 14 11 11 3 -2 0
-13 -6 -23z m-28 -78 c-3 -9 -8 -14 -10 -11 -3 3 -2 9 2 15 9 16 15 13 8 -4z
m2314 -49 c-3 -8 -1 -17 6 -19 9 -3 8 -8 -2 -18 -8 -8 -11 -9 -7 -2 3 6 2 14
-3 18 -10 5 -4 35 6 35 3 0 3 -6 0 -14z m-2346 -43 c-12 -20 -14 -14 -5 12 4
9 9 14 11 11 3 -2 0 -13 -6 -23z m2284 -78 c9 -36 16 -68 13 -70 -2 -2 -13 30
-24 70 -12 41 -18 72 -14 70 4 -2 15 -34 25 -70z m83 63 c1 -19 10 -73 12 -73
1 0 3 -10 6 -22 2 -13 0 -23 -4 -23 -9 0 -10 7 -13 55 -1 14 -5 25 -9 25 -6 0
-7 37 -1 48 3 6 8 1 9 -10z m-61 -168 c1 -11 -2 -18 -8 -15 -11 7 -12 35 -1
35 4 0 8 -9 9 -20z m87 -26 c3 -8 2 -12 -4 -9 -6 3 -10 10 -10 16 0 14 7 11
14 -7z m-2424 -54 c0 -5 -4 -10 -10 -10 -5 0 -10 5 -10 10 0 6 5 10 10 10 6 0
10 -4 10 -10z m-3 -122 c-3 -8 -6 -5 -6 6 -1 11 2 17 5 13 3 -3 4 -12 1 -19z
m2350 -108 c-2 -11 -6 -22 -9 -26 -4 -3 -5 2 -3 13 2 10 4 21 4 26 1 4 3 7 6
7 3 0 4 -9 2 -20z m-287 -604 c0 -2 -8 -10 -17 -17 -16 -13 -17 -12 -4 4 13
16 21 21 21 13z m-30 -39 c0 -2 -10 -12 -22 -23 l-23 -19 19 23 c18 21 26 27
26 19z m-80 -81 c0 -2 -8 -10 -17 -17 -16 -13 -17 -12 -4 4 13 16 21 21 21 13z
m-54 -31 c-1 -8 -8 -21 -16 -28 -10 -10 -11 -9 -4 3 5 8 9 18 10 23 3 14 4 17
8 17 2 0 3 -7 2 -15z m-76 -49 c0 -2 -8 -10 -17 -17 -16 -13 -17 -12 -4 4 13
16 21 21 21 13z m20 -20 c0 -2 -7 -7 -16 -10 -8 -3 -12 -2 -9 4 6 10 25 14 25
6z m-104 -51 c-1 -8 -6 -18 -11 -22 -4 -4 -5 -2 -1 5 10 17 -6 15 -30 -4 -19
-15 -19 -16 1 -9 16 5 17 4 8 -6 -13 -13 -85 -20 -77 -7 3 4 11 8 17 8 7 0 28
11 47 25 41 28 49 30 46 10z m-114 -77 c-5 -5 -17 -6 -26 -2 -13 5 -14 9 -5
14 16 11 43 0 31 -12z m-597 -38 c3 -6 -1 -7 -9 -4 -18 7 -21 14 -7 14 6 0 13
-4 16 -10z"/>
<path d="M905 2490 c-3 -6 1 -7 9 -4 18 7 21 14 7 14 -6 0 -13 -4 -16 -10z"/>
<path d="M1315 2380 c-3 -5 -1 -10 4 -10 6 0 11 5 11 10 0 6 -2 10 -4 10 -3 0
-8 -4 -11 -10z"/>
<path d="M1177 2360 c-10 -12 -9 -13 3 -4 8 6 27 10 43 9 15 -1 27 1 27 5 0
14 -61 5 -73 -10z"/>
<path d="M1080 2350 c-9 -6 -10 -10 -3 -10 6 0 15 5 18 10 8 12 4 12 -15 0z"/>
<path d="M1060 2281 c0 -7 -5 -9 -12 -5 -7 4 -8 3 -4 -4 4 -7 1 -12 -8 -12 -8
0 -18 -4 -21 -10 -7 -12 24 -2 44 14 8 6 15 10 15 8 1 -2 9 0 19 3 16 7 54 -1
46 -9 -2 -2 -49 -17 -104 -34 -55 -16 -109 -33 -120 -36 -18 -7 -18 -6 -2 4 9
6 14 16 11 22 -5 8 -1 9 12 4 10 -4 15 -4 11 0 -4 5 3 14 15 22 57 33 -41 0
-129 -45 -91 -45 -123 -72 -47 -37 74 33 75 34 69 24 -3 -6 -12 -10 -20 -10
-8 0 -17 -5 -21 -11 -4 -8 1 -9 17 -4 13 4 -3 -11 -36 -32 -59 -40 -182 -160
-241 -238 -44 -57 -104 -144 -104 -150 0 -3 -10 -22 -23 -43 -69 -111 -111
-251 -123 -407 -4 -54 -2 -74 10 -90 15 -19 15 -18 16 23 0 23 3 42 8 42 4 0
6 -21 3 -46 -2 -28 2 -50 9 -57 7 -7 10 -7 7 -2 -3 6 -2 17 4 25 6 11 9 8 9
-12 0 -28 17 -39 25 -15 2 6 6 46 10 87 8 104 13 135 34 210 11 36 22 80 26
99 4 19 14 48 22 65 l14 31 -7 -30 c-4 -16 -8 -43 -10 -60 -2 -16 -7 -51 -12
-77 -13 -66 -1 -70 15 -6 18 71 53 158 64 158 20 0 29 -49 14 -77 -8 -15 -15
-35 -15 -45 0 -9 -5 -18 -11 -20 -7 -2 -6 -8 4 -17 14 -11 17 -7 23 26 4 21
15 54 26 73 11 19 16 26 13 15 -4 -11 -9 -36 -12 -55 -3 -25 6 -10 30 47 53
124 102 201 172 265 22 21 43 38 46 38 4 0 10 -16 13 -35 8 -40 13 -42 32 -17
18 23 17 32 -1 32 -16 0 -20 18 -7 35 9 13 72 58 72 52 0 -3 -7 -18 -15 -33
-8 -16 -15 -39 -15 -51 0 -13 -5 -23 -11 -23 -12 0 -8 -40 6 -74 6 -14 5 -17
-3 -12 -8 5 -12 0 -12 -13 0 -33 -17 -24 -37 19 -20 43 -32 51 -34 20 -1 -11
-2 -30 -3 -42 -6 -78 70 -258 127 -302 18 -14 64 -40 102 -57 230 -104 514 5
622 238 32 68 37 90 41 173 4 82 1 105 -20 168 -14 39 -22 72 -20 72 12 0 113
-68 170 -114 84 -67 148 -126 136 -126 -5 0 -20 12 -33 25 -13 14 -26 23 -29
21 -3 -3 -21 7 -41 23 -20 15 -47 34 -61 40 l-25 12 25 -21 c49 -41 140 -134
140 -142 0 -4 -3 -8 -7 -9 -5 0 -19 -2 -31 -3 -17 -2 -26 4 -33 21 -5 13 -20
28 -33 35 -14 6 -23 15 -20 19 3 5 1 9 -5 9 -25 0 -19 -21 13 -42 19 -13 40
-34 46 -47 10 -22 8 -21 -25 8 -53 46 -55 38 -4 -16 98 -103 197 -257 185
-288 -3 -8 -1 -15 4 -15 6 0 10 -9 10 -20 0 -16 -5 -19 -25 -16 -13 3 -29 7
-34 10 -19 12 -20 -13 -1 -35 11 -13 19 -18 20 -11 1 37 49 -7 50 -46 0 -23
-1 -23 -32 8 -17 18 -58 44 -90 57 -32 14 -58 29 -58 34 0 9 27 17 74 21 l29
3 -41 23 c-52 29 -128 43 -226 43 -65 -1 -86 -5 -127 -28 -101 -54 -167 -130
-217 -248 -24 -58 -30 -88 -32 -165 l-2 -55 -12 46 c-33 118 -142 250 -249
302 -92 45 -202 61 -297 44 -16 -3 -113 -39 -168 -63 -73 -32 -163 -138 -192
-227 -18 -56 -19 -163 -2 -237 19 -86 93 -241 102 -214 6 17 8 17 15 -6 11
-37 70 -90 170 -154 87 -55 105 -72 42 -39 -31 16 -32 16 -17 -3 15 -18 14
-18 -13 -1 -16 10 -31 16 -35 13 -6 -7 -10 -4 53 -43 46 -29 146 -74 163 -73
4 1 -23 17 -60 36 -38 19 -68 37 -68 39 0 3 18 -4 40 -15 45 -23 54 -25 44 -8
-5 8 -2 9 12 4 41 -17 111 -35 159 -42 28 -3 59 -9 70 -11 11 -3 92 -7 180 -9
230 -5 369 23 535 106 85 43 104 62 106 106 1 22 3 42 3 45 1 3 31 21 68 40
72 37 171 127 217 199 16 25 38 57 48 73 13 18 16 32 10 43 -5 10 -5 36 0 63
5 25 11 62 14 81 19 112 22 124 23 98 0 -16 7 -28 14 -28 8 0 7 -4 -3 -10 -9
-6 -11 -10 -3 -10 7 0 10 -7 6 -17 -4 -14 -3 -15 6 -7 16 15 25 149 13 199
-10 39 -10 39 -10 -23 0 -81 -12 -95 -13 -16 -2 56 -2 57 -9 19 l-7 -40 -2 36
c-2 59 -48 204 -100 313 -52 111 -147 260 -160 251 -5 -2 -8 2 -7 9 2 20 -97
120 -171 173 -107 76 -213 123 -213 94 0 -5 12 -14 28 -19 15 -6 36 -17 47
-26 16 -13 11 -12 -23 2 -23 11 -45 22 -49 25 -3 4 -16 7 -27 7 -16 -1 -12 -6
17 -21 20 -11 37 -22 37 -24 0 -11 -67 30 -108 66 -65 57 -193 113 -282 124
-108 14 -230 17 -230 6z m-150 -65 c0 -2 -7 -7 -16 -10 -8 -3 -12 -2 -9 4 6
10 25 14 25 6z m-20 -30 c0 -2 -7 -7 -16 -10 -8 -3 -12 -2 -9 4 6 10 25 14 25
6z m520 -27 c104 -34 190 -101 230 -178 30 -60 24 -63 -9 -5 -16 27 -50 67
-75 88 -51 41 -195 106 -238 106 -15 0 -29 4 -32 9 -6 9 69 -3 124 -20z m-630
-72 c0 -2 -24 -23 -52 -46 l-53 -43 50 46 c48 44 55 50 55 43z m83 -48 c-78
-66 -214 -202 -228 -229 -15 -29 -65 -78 -65 -64 0 31 142 188 243 271 86 69
128 88 50 22z m937 -19 c33 -22 60 -43 60 -46 0 -2 -26 13 -57 34 -32 21 -67
44 -78 51 -15 10 -16 11 -2 7 9 -3 44 -24 77 -46z m-360 -25 c36 -19 58 -35
49 -35 -19 0 -76 27 -108 52 -36 28 -13 21 59 -17z m-476 -9 c-10 -8 -21 -12
-23 -10 -3 2 4 11 15 18 10 8 21 12 23 10 3 -2 -4 -11 -15 -18z m-313 -34 c-5
-10 -18 -25 -27 -33 -16 -12 -17 -12 -9 1 11 17 38 50 43 50 1 0 -2 -8 -7 -18z
m1240 1 c13 -16 12 -17 -3 -4 -10 7 -18 15 -18 17 0 8 8 3 21 -13z m-981 2 c0
-2 -10 -9 -22 -15 -22 -11 -22 -10 -4 4 21 17 26 19 26 11z m567 -95 c17 -62
-1 -142 -37 -175 -24 -22 -25 -18 -3 26 19 37 24 142 10 194 -8 28 -7 29 6 10
8 -11 19 -36 24 -55z m196 40 c3 -11 1 -23 -4 -26 -5 -3 -9 6 -9 20 0 31 6 34
13 6z m-1079 -25 c-9 -14 -18 -25 -21 -25 -5 0 5 18 20 38 17 22 18 13 1 -13z
m-39 -102 c-28 -62 -42 -82 -30 -43 9 31 44 100 50 100 3 0 -7 -26 -20 -57z
m1115 -39 c-10 -49 -60 -167 -67 -160 -3 2 7 26 20 53 14 26 30 74 37 106 6
32 14 57 16 54 3 -2 0 -26 -6 -53z m422 -37 c23 -28 34 -45 23 -37 -22 16 -34
30 -67 74 -35 47 -4 21 44 -37z m-1409 36 c-13 -35 -35 -63 -46 -56 -6 4 -8 0
-5 -9 4 -8 0 -15 -7 -15 -10 0 -9 10 6 39 11 21 22 38 25 38 3 0 2 -4 -1 -10
-3 -5 -2 -10 3 -10 5 0 12 9 15 20 3 11 8 20 11 20 3 0 2 -8 -1 -17z m1317
-108 c14 -19 14 -19 -2 -6 -18 13 -25 4 -10 -15 4 -5 -3 2 -16 16 -12 14 -20
30 -17 37 2 7 0 15 -5 18 -6 4 -10 11 -10 16 0 10 23 -16 60 -66z m75 32 c50
-78 150 -397 125 -397 -4 0 -13 26 -20 58 -7 31 -23 87 -36 123 -14 36 -26 76
-29 88 -2 13 -16 42 -30 66 -47 81 -56 136 -10 62z m99 -53 c5 -14 4 -15 -9
-4 -17 14 -19 20 -6 20 5 0 12 -7 15 -16z m-1160 -63 c-3 -3 -15 6 -27 18
l-22 24 27 -19 c14 -10 24 -21 22 -23z m1190 2 c9 -18 14 -33 12 -33 -6 0 -36
55 -36 66 0 11 5 3 24 -33z m-1144 -23 c8 -5 11 -10 5 -10 -5 0 -17 5 -25 10
-8 5 -10 10 -5 10 6 0 17 -5 25 -10z m1194 -105 c4 -19 3 -25 -3 -15 -4 8 -11
29 -15 45 -4 19 -3 25 3 15 4 -8 11 -28 15 -45z m-1861 25 c-3 -12 -8 -19 -11
-16 -5 6 5 36 12 36 2 0 2 -9 -1 -20z m1277 -54 c0 -3 -15 -14 -32 -26 l-33
-22 30 26 c31 27 35 29 35 22z m-1293 -38 c-3 -7 -5 -2 -5 12 0 14 2 19 5 13
2 -7 2 -19 0 -25z m1710 -30 c-3 -8 -6 -5 -6 6 -1 11 2 17 5 13 3 -3 4 -12 1
-19z m-1720 -50 c-3 -7 -5 -2 -5 12 0 14 2 19 5 13 2 -7 2 -19 0 -25z m1737
-14 c3 -8 2 -12 -4 -9 -6 3 -10 10 -10 16 0 14 7 11 14 -7z m-1537 -21 c-69
-73 -90 -200 -52 -331 12 -43 25 -83 28 -89 4 -7 3 -14 -1 -17 -7 -4 -23 32
-37 84 -1 3 -7 25 -14 50 -28 96 -1 225 61 296 17 19 33 34 36 34 3 0 -6 -12
-21 -27z m1740 5 c-3 -8 -6 -5 -6 6 -1 11 2 17 5 13 3 -3 4 -12 1 -19z m-1937
-8 c0 -11 -4 -20 -9 -20 -5 0 -7 9 -4 20 3 11 7 20 9 20 2 0 4 -9 4 -20z m520
-69 c0 -4 -12 -8 -26 -9 -32 -2 -109 -36 -118 -51 -16 -26 -24 -8 -8 19 12 22
30 34 61 44 43 12 91 11 91 -3z m778 -237 c41 -40 112 -74 155 -74 27 0 18 -8
-15 -14 -55 -10 -150 33 -185 84 -8 12 -16 35 -17 53 -2 26 -1 28 8 12 6 -11
30 -38 54 -61z m-296 -12 c33 -112 122 -215 232 -268 78 -38 161 -58 216 -52
49 4 44 -3 -28 -40 -84 -44 -329 -128 -340 -117 -2 2 14 9 37 15 23 6 41 15
41 20 0 6 5 10 11 10 16 0 110 42 105 47 -3 3 -31 -4 -63 -15 -77 -27 -153
-36 -153 -19 0 7 5 18 12 25 8 8 8 15 0 25 -9 10 -9 14 1 14 6 1 30 8 52 17
22 9 29 14 15 12 -206 -39 -349 -48 -391 -25 -11 6 -23 8 -26 5 -3 -3 -14 -1
-25 5 -20 11 -20 11 1 33 26 28 26 36 0 36 -12 0 -23 -8 -26 -20 -6 -21 -37
-27 -62 -11 -11 7 -6 11 20 16 20 4 49 19 65 33 69 62 103 60 65 -4 -26 -43
-26 -47 -2 -35 10 6 21 8 23 5 3 -2 32 23 66 56 78 76 136 188 130 249 -5 57
4 51 24 -17z m-135 -44 c-3 -8 -6 -5 -6 6 -1 11 2 17 5 13 3 -3 4 -12 1 -19z
m876 -17 c-79 -122 -223 -213 -330 -210 -35 1 -34 2 13 9 103 15 248 111 310
204 9 14 18 26 21 26 3 0 -3 -13 -14 -29z m-167 10 c-11 -17 -108 -83 -104
-70 2 7 26 28 52 46 50 34 61 39 52 24z m-435 -89 c16 -17 47 -44 69 -58 47
-31 53 -43 9 -17 -45 27 -132 113 -153 153 -7 14 2 5 75 -78z m203 -121 c4 -5
-3 -7 -14 -4 -23 6 -26 13 -6 13 8 0 17 -4 20 -9z m206 -75 c0 -6 -108 -66
-117 -66 -9 0 99 68 110 69 4 1 7 -1 7 -3z m-569 -33 c-11 -5 -11 -7 0 -14 10
-6 8 -8 -6 -7 -11 0 -29 -3 -40 -7 -15 -5 -16 -4 -6 3 12 8 11 11 -5 15 -10 2
-7 3 9 1 15 -2 27 1 27 6 0 6 8 10 18 9 12 0 13 -2 3 -6z m564 -2 c-14 -13
-112 -66 -102 -55 14 14 91 63 102 63 6 1 6 -2 0 -8z m-875 -57 c36 -4 63 -9
115 -21 17 -4 50 -8 75 -9 108 -4 106 -4 87 -15 -19 -11 -89 -6 -229 16 -57 9
-210 54 -222 66 -6 5 24 -1 65 -12 41 -11 90 -22 109 -25z m736 11 c-11 -8
-25 -15 -30 -15 -6 1 0 7 14 15 32 19 40 18 16 0z m-46 -19 c0 -2 -7 -7 -16
-10 -8 -3 -12 -2 -9 4 6 10 25 14 25 6z m-50 -26 c-8 -5 -19 -10 -25 -10 -5 0
-3 5 5 10 8 5 20 10 25 10 6 0 3 -5 -5 -10z m-301 -34 c-10 -10 -89 -23 -89
-16 0 5 10 11 23 13 32 6 71 8 66 3z m-335 -26 c4 -5 -11 -4 -35 1 -63 14 -72
20 -19 13 25 -3 49 -10 54 -14z m206 0 c0 -5 -5 -10 -11 -10 -5 0 -7 5 -4 10
3 6 8 10 11 10 2 0 4 -4 4 -10z m-113 -6 c-3 -3 -12 -4 -19 -1 -8 3 -5 6 6 6
11 1 17 -2 13 -5z m77 -2 c3 -5 -1 -9 -9 -9 -8 0 -15 4 -15 9 0 4 4 8 9 8 6 0
12 -4 15 -8z m236 -4 c0 -4 -4 -8 -9 -8 -6 0 -12 4 -15 8 -3 5 1 9 9 9 8 0 15
-4 15 -9z"/>
<path d="M1505 558 c-27 -9 -47 -18 -42 -19 24 -5 35 -4 59 8 20 10 27 10 30
1 3 -7 7 -6 11 5 9 24 -2 25 -58 5z"/>
<path d="M1810 2236 c0 -3 9 -10 20 -16 11 -6 20 -8 20 -6 0 3 -9 10 -20 16
-11 6 -20 8 -20 6z"/>
<path d="M1605 2209 c4 -5 11 -9 17 -9 5 0 24 -6 41 -14 57 -26 107 -45 107
-41 0 6 -105 55 -140 65 -19 5 -28 5 -25 -1z"/>
<path d="M769 2139 l-24 -20 30 17 c39 24 40 24 28 24 -6 0 -21 -9 -34 -21z"/>
<path d="M606 2039 c-82 -76 -133 -145 -185 -247 -29 -58 -82 -192 -76 -192 2
0 23 37 47 83 64 118 153 239 255 342 48 49 74 79 56 67 -39 -27 -52 -28 -28
-2 37 40 7 18 -69 -51z m54 28 c0 -2 -15 -16 -32 -33 l-33 -29 29 33 c28 30
36 37 36 29z"/>
<path d="M2020 1935 c14 -17 28 -32 31 -35 3 -3 29 -40 59 -84 63 -95 142
-256 167 -342 18 -65 37 -90 23 -31 -22 92 -22 92 -11 77 6 -8 11 -23 11 -32
0 -9 4 -19 9 -22 5 -4 3 15 -4 41 -35 132 -111 264 -212 368 -67 70 -113 107
-73 60z"/>
<path d="M268 1238 c-2 -23 -1 -60 3 -82 5 -32 7 -23 8 42 1 88 -4 109 -11 40z"/>
<path d="M2300 1077 c0 -1 -4 -17 -9 -35 -6 -20 -6 -30 0 -27 5 4 9 -1 9 -9 0
-8 -4 -18 -10 -21 -5 -3 -10 -11 -10 -16 0 -19 18 1 29 31 7 23 7 29 -1 24 -8
-5 -9 2 -5 24 4 18 4 32 2 32 -3 0 -5 -1 -5 -3z"/>
<path d="M2531 942 c-13 -59 -31 -123 -39 -142 -9 -19 -19 -43 -23 -52 -5 -10
-3 -20 3 -24 7 -4 8 -3 4 4 -4 7 -3 12 3 12 6 0 18 26 28 58 10 32 21 58 25
58 3 -1 10 3 15 8 5 5 2 6 -6 1 -10 -6 -12 -1 -7 21 10 46 16 77 22 114 3 19
8 38 11 43 2 4 1 7 -4 7 -4 0 -19 -48 -32 -108z"/>
<path d="M2375 990 c-4 -17 -5 -34 -2 -36 3 -3 8 9 12 26 4 17 5 34 2 36 -3 3
-8 -9 -12 -26z"/>
<path d="M1937 495 c-94 -69 -91 -72 10 -8 49 31 73 54 56 52 -4 0 -34 -20
-66 -44z"/>
<path d="M956 361 c5 -6 33 -17 62 -23 29 -7 52 -16 52 -20 0 -3 -15 -2 -32 3
-40 11 -40 11 -34 0 3 -5 20 -12 38 -15 18 -3 44 -9 58 -12 102 -23 356 -4
433 31 17 8 23 12 12 9 -11 -4 -96 -8 -190 -9 -161 -2 -357 18 -397 41 -9 5
-10 4 -2 -5z"/>
<path d="M1845 264 c-23 -19 -144 -76 -230 -110 -33 -13 -54 -23 -48 -24 37
-1 268 105 292 134 17 20 12 20 -14 0z"/>
<path d="M1440 190 c-8 -6 -39 -17 -69 -26 -36 -11 -49 -19 -40 -24 7 -5 17
-6 21 -4 4 3 8 0 8 -5 0 -6 -10 -11 -22 -11 -13 0 -30 -5 -38 -10 -11 -7 -5
-8 20 -4 52 9 62 13 55 24 -3 6 1 7 9 4 10 -4 16 -1 16 9 0 9 14 17 35 21 19
4 35 11 35 16 0 5 8 11 18 13 11 3 9 5 -8 6 -14 0 -32 -4 -40 -9z"/>
</g>
</svg>
