<?xml version="1.0" encoding="UTF-8"?>
<svg id="Capa_1" data-name="Capa 1" xmlns="http://www.w3.org/2000/svg" viewBox="0 0 550.97 600">
  <defs>
    <style>
      .cls-1 {
        fill: #fff;
        stroke-width: 0px;
      }
    </style>
  </defs>
  <path id="carta" class="cls-1" d="M544.7,237.98c-6.45-6.94-17.79-9.22-25.67-14.18,3.1-9.68,16.48-104.4,18.34-130.69-48.62-4.99-100.39-6.8-150.63-10.16C363.01,61,301.98-1.21,287.72.02c-18.21,1.57-86.75,66.59-93.09,67.7-10.95,1.93-26.61-2.33-38.92-3.38-25.91-2.2-52.01-3.64-78.71-5.92-12.36-1.06-24.9-4.95-36.38-.85-.37,42.58.98,92.49-2.54,134.55-.59,7.15-26.44,17.73-30.87,25.06-6.53,10.77-4.35,27.01-4.96,39.1-.13,2.59-.21,5.16-.23,7.75-.15,12.53.71,25.07,1.19,37.59,2.16,57.17-.1,115.2-1.25,172.43-.14,6.46,3.24,83.45-1.95,85.33v4.24c177.75,7.45,347.83,27.86,522.98,36.38,15.37-100.56,22.43-209.43,27.08-320.72,0-13.49,4.19-31.03-5.35-41.3ZM50.77,67.72c163.86,20.45,324.27,28.07,477.28,33.85-3.53,49.97-12.68,98.09-19.46,144.71-1.09,7.5-.55,16.51-2.54,21.16-2.3,5.38-14.53,11.75-21.16,16.92-51.58,40.29-103.59,80.04-154.86,116.78-12.42-7.17-20.02-20.39-32.48-27.3-13.51-7.48-27.84-2.97-39.39,6.03-2.88,2.25-23.73,23.01-27.14,20.43-54.2-41.07-111.78-89.36-165.87-133.71-6.66-5.46-19.8-15.46-21.16-22-1.12-5.39.85-14.07.85-22,0-54.83-.36-108.79,5.92-154.87ZM11.84,231.04c-.47,0-.96-.69,0-.85,68.59,68.6,144.04,119.86,211.56,176.02-74.14,46.31-141.77,91.49-214.1,147.24,7.53-99.02-.35-220.47,2.54-322.42ZM507.74,591.54c-160.1-14.51-320.57-26.72-483.7-38.19,69.86-50.98,142.28-103.15,220.52-152.21,12.48-7.82,24.79-21.25,41-19.07,14.36,1.94,24.58,14.41,34.2,24.03,12.74,12.76,26.22,24.74,39.29,37.14,49.02,46.52,98.23,93.05,144.46,142.37,1.45,1.55,5.5,2.74,4.23,5.92ZM517.05,587.31c-62.38-62.38-118.95-123.08-182.79-179.41,74.47-55.56,137.15-98.07,207.32-155.71-10.36,109.53-15.06,224.7-24.54,335.11ZM207.84,262.15l12.85,20.26c3.48,5.4,7.62,11.47,12.39,18.2l9.67,13.62,11.12,17.39c3.12,4.35,5.68,7.73,7.61,10.2,1.46,1.98,2.71,3.43,3.78,4.34,2.36,2.22,4.53,3.91,6.5,5.05,4.69,1.85,9.83,1.37,15.4-1.44,1.85-.84,4.18-2.35,7.01-4.55,3.86-2.56,8.6-6.54,14.2-11.93l13.41-12.66,6.29-5.69c23.49-19.94,43.31-40.01,59.47-60.22,26.69-33.72,36.79-62.09,30.29-85.12-3.23-11.5-9.42-20.35-18.5-26.56-14.9-10.22-29.64-12.9-44.14-8-14.54,4.89-28.15,13.99-40.9,27.28-9.73,10.18-19.47,23.09-29.26,38.73-3.64-11.26-7.63-21.19-11.92-29.75-14.96-29.03-34.6-42.93-58.91-41.64-13.15.88-22.91,6.18-29.3,15.9-13.76,22.45-10.26,53.92,10.58,94.48,3.46,6.72,7.59,14.08,12.36,22.09Z"/>
</svg>